<?xml version="1.0" encoding="UTF-8"?>
<svg width="200px" height="42px" viewBox="0 0 200 42" version="1.1" xmlns="http://www.w3.org/2000/svg" xmlns:xlink="http://www.w3.org/1999/xlink" style="background: #FFFFFF;">
    <title>Symbols / Icons / Logo / Active / DoordashMobile</title>
    <g id="Symbols-/-Icons-/-Logo-/-Active-/-DoordashMobile" stroke="none" stroke-width="1" fill="none" fill-rule="evenodd">
        <rect fill="#FFFFFF" x="0" y="0" width="200" height="42"></rect>
        <g id="Group-2" transform="translate(0.000000, 9.000000)" fill-rule="nonzero">
            <path d="M7.47939722e-15,1.46990396 C0.0829897429,0.302863582 0.306023046,0.0538963614 1.2750987,0.00548584538 C1.51023463,-0.00575345741 1.74623489,0.00375919293 1.98137283,0.00375919293 C11.3911619,0.00375919293 20.8018152,0.00202450955 30.2124726,0.00461850369 C34.5789237,0.00548584538 38.6384964,2.56432454 40.2905012,6.67748773 C41.0944627,8.67701551 41.5353414,10.6938339 41.3667719,12.8230293 C41.1835058,15.1268535 40.368305,17.2249249 38.9090709,19.0152507 C37.6426235,20.5695712 36.1678294,21.8878944 34.2400541,22.6339327 C32.9952099,23.1163152 31.7278912,23.4759328 30.4009267,23.502732 C28.0106575,23.5511426 25.6177983,23.5018687 23.2266657,23.5476892 C22.2852546,23.5658432 21.533161,23.1958457 20.9185249,22.5837996 C18.8092061,20.4822628 16.7396606,18.3409608 14.657145,16.2117694 C14.5490847,16.1011151 14.4652296,15.9671228 14.3831052,15.8616565 C14.4254644,14.8502196 14.6856669,14.5122093 15.5267997,14.4024224 C15.7965148,14.3678411 16.0748793,14.3989691 16.3489151,14.3989691 C20.6228698,14.3989691 24.8968245,14.3998284 29.1707832,14.3989691 C29.7966586,14.3989691 30.4130293,14.396371 30.9904982,14.0661427 C32.0641708,13.452366 32.4886302,12.4487151 32.2171884,11.0491348 C32.0416962,10.1492156 30.953327,9.23892444 29.9323815,9.15766335 C29.5814093,9.13000078 29.2269757,9.13950941 28.8742688,9.13950941 C22.4443155,9.13864207 16.0135028,9.11876147 9.58354548,9.15420603 C8.19520448,9.161984 7.1120232,8.71419074 6.15677884,7.71312986 C4.39757397,5.87007293 2.57094433,4.09011912 0.775433591,2.28250675 C0.500530444,2.00587695 0.2368666,1.71887118 7.47939722e-15,1.46990396 Z" id="Path-618" fill="#E82219"></path>
            <path d="M99.2869367,20.4728577 C96.5119653,20.5567047 94.2790423,19.5461352 92.448084,17.7125949 C90.2756661,15.537575 89.2607719,11.8592431 90.6724588,8.63994381 C91.9916534,5.63244251 94.2297644,3.84384541 97.4940049,3.24131196 C100.708992,2.64914446 103.46925,3.49287318 105.733309,5.74309483 C109.85511,9.83983475 108.784898,16.4513235 103.838385,19.28939 C102.379146,20.1270654 100.848168,20.5826366 99.2869367,20.4728577 Z M104.61382,11.8601105 C104.718415,9.00648 102.38953,6.36724757 99.180607,6.34390363 C95.8515167,6.32056571 93.6289617,8.77999139 93.6298207,11.8635638 C93.6306883,14.894405 95.9094359,17.3555634 99.2661847,17.3400728 C102.679118,17.3244435 104.702859,14.4102998 104.61382,11.8601105 Z" id="Path-619" fill="#E82419"></path>
            <path d="M86.6351537,10.9870498 C86.5487167,15.2757051 84.9589355,17.6823936 82.1234751,19.362065 C78.9465229,21.2457545 74.1236373,20.7927733 71.3339853,18.195896 C66.951099,14.1147161 67.6461368,7.34848312 72.9073191,4.281334 C76.3133458,2.29650285 80.4299744,2.61030787 83.5074874,5.15618061 C85.582225,6.87302326 86.7259274,9.1422662 86.6351537,10.9870498 Z M83.0406729,11.874003 C83.1772712,8.68496029 80.2570762,6.31025101 77.7760373,6.30418441 C74.7313547,6.29642173 71.9892459,8.64173777 72.0601431,11.8376952 C72.1310322,15.0371058 74.3051767,17.3599473 77.7959219,17.3193188 C81.1111749,17.2812802 83.0951467,14.5132395 83.0406729,11.874003 Z" id="Path-620" fill="#E82419"></path>
            <path d="M131.961887,3.57340228 C132.202213,3.55005834 132.391534,3.51461579 132.581715,3.51461579 C134.499986,3.5120238 136.419124,3.46793795 138.3348,3.52671842 C142.487721,3.65552669 145.702699,6.22214536 146.487644,10.3690265 C147.34779,14.9161536 144.640238,18.6722873 140.789891,19.8886135 C140.025691,20.1297907 139.187156,20.2041332 138.380609,20.2266118 C136.580778,20.2750223 134.780089,20.2413164 132.979375,20.2413164 L131.964489,20.2413164 C131.711193,19.2462988 131.70427,4.62200835 131.961887,3.57340228 Z M135.385212,6.76676567 C135.19675,10.2730688 135.269366,16.1151792 135.532162,17.1058601 C136.270439,17.1058601 137.045858,17.1456294 137.816973,17.0972188 C139.424888,16.9969365 140.833114,16.4825868 141.905919,15.1720395 C144.080096,12.5181024 143.117909,8.2121645 139.622851,7.03648284 C138.247464,6.57398894 136.842692,6.88001199 135.385212,6.76676567 Z" id="Path-621" fill="#E82319"></path>
            <path d="M50.2426392,3.55354118 C52.8524905,3.55354118 55.4260258,3.28728736 57.920898,3.61751566 C61.4168271,4.08000554 63.7474385,6.25675211 64.7199775,9.6843861 C65.6164394,12.8440396 64.4917542,16.5647307 61.3632206,18.712088 C60.1434571,19.5488921 58.7905486,20.0788178 57.3607157,20.1548909 C55.0231777,20.2785111 52.6752717,20.1886048 50.3446523,20.1886048 C50.108647,19.3379594 50.0256592,5.71559113 50.2426392,3.55354118 Z M53.737705,16.9234849 C54.715428,16.9234849 55.575578,16.9546088 56.4322747,16.9174336 C58.2174004,16.8387705 59.6429206,16.0806255 60.6068063,14.5513776 C61.9743993,12.3806784 61.5101868,9.75095457 59.9014005,8.13871092 C58.1162627,6.35011582 55.9317382,6.55067253 53.737705,6.63885227 L53.737705,16.9234849 Z" id="Path-622" fill="#E82219"></path>
            <path d="M116.527185,14.3876487 L116.527185,19.876193 C115.686923,20.2937297 113.965764,20.3136143 113.034737,19.9323775 L113.034737,3.57914172 C113.301846,3.54888515 113.561181,3.49442533 113.820532,3.49442533 C116.053455,3.48750868 118.288129,3.5194899 120.521052,3.4823227 C123.12486,3.43909816 125.837568,5.28128775 126.094317,8.6536006 C126.250792,10.6989449 125.337047,12.3526804 123.682448,13.577644 C123.589932,13.645931 123.476696,13.6857003 123.379007,13.7479441 C123.314165,13.7903033 123.259716,13.8490858 123.138673,13.9545521 L126.430604,19.774184 C125.893768,20.2643364 125.893768,20.2643364 122.931218,20.1960413 C121.709696,18.3953516 120.811531,16.3214814 119.594346,14.3876487 L116.527185,14.3876487 Z M122.402156,9.61748626 C122.417704,9.39012629 122.447113,9.1558597 122.447113,8.92158509 C122.445378,7.65080904 121.697601,6.70939798 120.444983,6.62036093 C119.170746,6.52872588 117.885281,6.59961099 116.592026,6.59961099 L116.592026,11.0421392 C117.705468,11.0421392 118.760991,10.9859467 119.807872,11.0576951 C120.959349,11.1363622 121.76935,10.6920262 122.402156,9.61748626 Z" id="Path-623" fill="#E82319"></path>
            <path d="M189.425813,13.4331619 C189.315178,15.6202804 189.494991,17.7624457 189.31346,19.9460989 C188.187907,20.3472123 187.102991,20.0800912 185.984345,20.1509843 C185.899651,19.8985557 185.769967,19.6910844 185.7691,19.4836131 C185.757857,14.3858082 185.758724,9.28887477 185.765647,4.1919413 C185.765647,4.00694455 185.845169,3.82194779 185.903972,3.56692926 L189.254657,3.56692926 C189.544269,4.61121267 189.348876,5.70390259 189.384325,6.7758526 C189.420641,7.83310598 189.392115,8.892082 189.392115,9.9441474 C190.263504,10.1429775 194.263411,10.1931146 196.511914,10.0297331 L196.511914,3.57643789 C197.723912,3.43120634 198.833884,3.47356554 200.000057,3.54099333 L200.000057,19.9478296 C198.898742,20.3498103 197.749835,20.1630869 196.526611,20.0411893 L196.526611,13.4331619 L189.425813,13.4331619 Z" id="Path-624" fill="#E82519"></path>
            <path d="M155.569861,3.51368421 L159.441851,3.51368421 C160.533673,6.25752568 161.653154,9.01346577 162.72596,11.7875618 C163.783217,14.5210293 164.911356,17.2294162 165.91328,20.0087002 C165.225157,20.3423898 164.632136,20.1893723 164.061602,20.2144449 C163.479792,20.2395135 162.895413,20.2196289 162.233213,20.2196289 L160.758443,16.2577526 L154.321563,16.2577526 C153.826231,17.5354473 153.312732,18.8580831 152.807008,20.1625771 C151.619232,20.1625771 150.53173,20.1712224 149.444196,20.1470171 C149.344805,20.1452905 149.251437,19.9300371 149.146842,19.8038188 C151.284679,14.3818451 153.414741,8.9806152 155.569861,3.51368421 Z M157.493319,7.6207981 C156.777538,9.54857544 156.129184,11.296542 155.437591,13.1612062 C156.203518,13.1612062 156.861397,13.1776295 157.519243,13.1568855 C158.163277,13.1361376 158.820304,13.2519759 159.511881,13.0592012 L157.493319,7.6207981 Z" id="Path-625" fill="#E82319"></path>
            <path d="M180.31577,5.43516661 C179.656173,6.08525326 179.045853,6.68692538 178.340447,7.38109789 C178.053454,7.2263557 177.753466,7.0880408 177.476848,6.91082001 C176.525053,6.30223525 175.520543,6.09649056 174.384614,6.26938268 C173.635119,6.38349232 173.224497,6.84166758 172.741243,7.37763656 L172.741243,8.5040484 C173.405161,9.50510527 174.479717,9.77136311 175.511018,10.1015954 C176.726469,10.4906062 177.975634,10.7577274 179.074379,11.4838851 C180.635626,12.5160659 181.245946,13.9338001 181.024645,15.7535192 C180.692694,18.482662 178.71909,20.2617444 175.953635,20.4778651 C174.422665,20.5980281 172.942675,20.5470236 171.504189,19.9868413 C170.328507,19.5295394 169.279039,18.8915574 168.437895,17.7392136 C169.091437,17.0631931 169.731149,16.4018731 170.325905,15.787233 C170.883509,15.7569805 171.07887,16.1598206 171.387483,16.3759412 C172.732601,17.3147543 174.186652,17.7176024 175.790254,17.191138 C176.179257,17.0631931 176.573463,16.8280591 176.861341,16.5384594 C177.80276,15.5892703 177.609953,14.4524825 176.529374,13.9372615 C175.695168,13.5396014 174.821176,13.2136937 173.942013,12.9232346 C172.836345,12.5566984 171.724638,12.2498121 170.760732,11.533159 C168.211406,9.63996485 168.628967,5.92099842 170.918074,4.1963778 C173.47866,2.26773714 177.93156,2.85211864 180.075452,5.02973054 C180.154123,5.11012429 180.194744,5.22769325 180.31577,5.43516661 Z" id="Path-626" fill="#E82419"></path>
        </g>
    </g>
</svg>