<svg width="235" height="81" viewBox="0 0 235 81" fill="none" xmlns="http://www.w3.org/2000/svg">
<path d="M24.6709 0.894531H15.5337C11.6419 0.894531 8.79919 3.67735 8.79919 7.48716V35.4147C8.79919 39.2245 11.6419 42.0074 15.5337 42.0074H24.6709C37.7677 42.0074 46.9049 33.5595 46.9049 21.4344C46.9049 9.34238 37.7677 0.894531 24.6709 0.894531ZM25.1109 31.0749H20.4407V11.7939H25.1109C31.067 11.7939 35.2295 15.7694 35.2295 21.4344C35.2295 27.1325 31.067 31.0749 25.1109 31.0749Z" fill="#EC6C25"/>
<path d="M86.1617 5.83067C86.1617 2.45153 83.7251 0 80.3409 0C76.9568 0 74.5201 2.45153 74.5201 5.83067V24.9791C74.5201 28.6895 71.6774 31.5717 68.0225 31.5717C64.3677 31.5717 61.525 28.6564 61.525 24.9791V5.83067C61.525 2.45153 59.0884 0 55.7042 0C52.32 0 49.8834 2.45153 49.8834 5.83067V25.5092C49.8834 35.746 57.3624 42.9018 68.0225 42.9018C78.7165 42.9018 86.1617 35.746 86.1617 25.5092V5.83067Z" fill="#EC6C25"/>
<path d="M163.353 32.2343L153.437 21.2687L162.676 10.6675C164.03 9.14355 164.741 7.5865 164.741 6.16196C164.741 2.71656 162.033 0 158.581 0C156.822 0 155.197 0.927609 153.607 2.88221L143.15 16.5644V5.83067C143.15 2.35215 140.815 0 137.329 0C133.843 0 131.508 2.35215 131.508 5.83067V37.038C131.508 40.5165 133.843 42.8687 137.329 42.8687C140.815 42.8687 143.15 40.5165 143.15 37.038V26.2049L154.351 40.1852C155.976 42.1067 157.363 42.8687 159.157 42.8687C162.609 42.8687 165.113 40.2846 165.113 36.7067C165.147 35.1165 164.504 33.4932 163.353 32.2343Z" fill="#EC6C25"/>
<path d="M179.8 5.83067C179.8 2.35215 177.465 0 173.98 0C170.494 0 168.159 2.35215 168.159 5.83067V37.038C168.159 40.5165 170.494 42.8687 173.98 42.8687C177.465 42.8687 179.8 40.5165 179.8 37.038V5.83067Z" fill="#EC6C25"/>
<path d="M234.962 6.162C235.334 3.01476 232.931 0.993906 230.461 0.728875C228.43 0.496974 226.84 1.09329 225.791 2.51783C225.012 3.57795 224.505 5.16813 224.2 7.71905C223.895 10.3362 223.929 12.092 224.301 13.2516C224.843 14.8086 226.061 15.7362 227.72 15.935C230.901 16.2994 232.39 13.7816 234.217 8.71292C234.623 7.65279 234.894 6.65893 234.962 6.162Z" fill="#C63663"/>
<path d="M101.999 21.1031V37.038C101.999 40.5165 99.6644 42.8687 96.1787 42.8687C92.693 42.8687 90.3579 40.5165 90.3579 37.038V5.83067C90.3579 2.35215 92.693 0 96.1787 0C97.8708 0 99.3936 0.596321 100.307 1.4908C101.187 2.38528 115.841 21.7656 115.841 21.7656V5.83067C115.841 2.35215 118.176 0 121.661 0C125.147 0 127.482 2.35215 127.482 5.83067V37.038C127.482 40.5165 125.147 42.8687 121.661 42.8687C119.969 42.8687 118.446 42.2724 117.533 41.3779C116.653 40.4834 101.999 21.1031 101.999 21.1031Z" fill="#EC6C25"/>
<path d="M195.504 21.1031V37.038C195.504 40.5165 193.169 42.8687 189.683 42.8687C186.197 42.8687 183.862 40.5165 183.862 37.038V5.83067C183.862 2.35215 186.197 0 189.683 0C191.375 0 192.898 0.596321 193.812 1.4908C194.691 2.38528 209.345 21.7656 209.345 21.7656V5.83067C209.345 2.35215 211.68 0 215.166 0C218.651 0 220.986 2.35215 220.986 5.83067V37.038C220.986 40.5165 218.651 42.8687 215.166 42.8687C213.474 42.8687 211.951 42.2724 211.037 41.3779C210.157 40.4834 195.504 21.1031 195.504 21.1031Z" fill="#EC6C25"/>
<path d="M227.18 38.6283H226.199C225.995 38.6283 225.86 38.7608 225.86 38.9596V41.2455C225.86 41.4442 225.995 41.5768 226.165 41.5768C226.334 41.5768 226.469 41.4442 226.469 41.2455V40.5166H226.842L227.552 41.4442C227.62 41.5436 227.721 41.5768 227.823 41.5768C228.026 41.5768 228.128 41.4442 228.128 41.2786C228.128 41.2123 228.094 41.1461 228.026 41.0467L227.586 40.4504L227.721 40.351C227.958 40.1854 228.094 39.9203 228.094 39.6222C228.128 38.9927 227.755 38.6283 227.18 38.6283ZM226.977 40.0528H226.537V39.0921H226.977C227.281 39.0921 227.518 39.2909 227.518 39.589C227.518 39.8872 227.281 40.0528 226.977 40.0528Z" fill="#EC6C25"/>
<path d="M226.977 37.2699C225.352 37.2699 224.033 38.5288 224.033 40.0858C224.033 41.6429 225.352 42.9018 226.977 42.9018C228.601 42.9018 229.921 41.6429 229.921 40.0858C229.921 38.5288 228.601 37.2699 226.977 37.2699ZM226.977 42.3717C225.691 42.3717 224.642 41.3447 224.642 40.0858C224.642 38.8269 225.691 37.7668 226.977 37.7668C228.263 37.7668 229.346 38.7938 229.346 40.0858C229.312 41.3447 228.263 42.3717 226.977 42.3717Z" fill="#EC6C25"/>
<path d="M72.015 57.2464C74.1132 57.2464 75.5684 55.855 75.5684 53.8341C75.5684 51.8133 74.1132 50.4219 72.015 50.4219H57.7338C55.1618 50.4219 53.4359 52.1446 53.4359 54.6624V76.0967C53.4359 78.6476 55.1618 80.3372 57.7338 80.3372H72.015C74.1132 80.3372 75.5684 78.9458 75.5684 76.9249C75.5684 74.9041 74.1132 73.5126 72.015 73.5126H61.9302V67.682H69.3753C71.0674 67.682 72.2519 66.5556 72.2519 64.8992C72.2519 63.2759 71.0674 62.1163 69.3753 62.1163H61.9302V57.2133H72.015V57.2464Z" fill="#CC3663"/>
<path d="M96.3137 72.4197H86.4996V54.0332C86.4996 51.4823 84.8075 49.7927 82.2694 49.7927C79.7313 49.7927 78.0392 51.5154 78.0392 54.0332V76.097C78.0392 78.6479 79.7313 80.3375 82.2694 80.3375H96.3137C98.8856 80.3375 100.645 78.7142 100.645 76.362C100.645 74.043 98.8518 72.4197 96.3137 72.4197Z" fill="#CC3663"/>
<path d="M107.414 49.7927C104.876 49.7927 103.184 51.5154 103.184 54.0332V76.7596C103.184 79.3105 104.876 81 107.414 81C109.952 81 111.644 79.2773 111.644 76.7596V54.0332C111.644 51.4823 109.952 49.7927 107.414 49.7927Z" fill="#CC3663"/>
<path d="M139.969 49.7927C138.006 49.7927 136.686 50.7866 135.84 52.9068L133.539 58.6381L129.411 69.5706L125.282 58.605L122.981 52.9068C122.101 50.7866 120.781 49.7927 118.818 49.7927C116.009 49.7927 114.148 51.4492 114.148 53.9007C114.148 54.6295 114.317 55.3584 114.656 56.1534L124.03 76.627C125.383 79.5755 126.534 81 129.377 81C132.219 81 133.37 79.5755 134.724 76.627L144.098 56.1203C144.436 55.3584 144.605 54.5964 144.605 53.9007C144.639 51.416 142.744 49.7927 139.969 49.7927Z" fill="#CC3663"/>
<path d="M165.723 57.2464C167.821 57.2464 169.276 55.855 169.276 53.8341C169.276 51.8133 167.821 50.4219 165.723 50.4219H151.441C148.869 50.4219 147.144 52.1446 147.144 54.6624V76.0967C147.144 78.6476 148.869 80.3372 151.441 80.3372H165.723C167.821 80.3372 169.276 78.9458 169.276 76.9249C169.276 74.9041 167.821 73.5126 165.723 73.5126H155.638V67.682H163.083C164.775 67.682 165.96 66.5556 165.96 64.8992C165.96 63.2759 164.775 62.1163 163.083 62.1163H155.638V57.2133H165.723V57.2464Z" fill="#CC3663"/>
<path d="M214.827 62.7792L211.442 61.4872C209.92 60.924 208.16 60.2614 208.16 58.4393C208.16 57.0479 209.344 55.9878 210.935 55.9878C212.796 55.9878 213.845 56.9817 214.725 58.0749C215.673 59.2344 216.823 59.897 217.974 59.897C220.174 59.897 221.933 58.1412 221.933 55.9878C221.933 55.0271 221.527 54.0663 220.783 53.2381C218.651 50.8197 215.74 49.7927 211.341 49.7927C204.573 49.7927 200.004 53.4038 200.004 58.7375C200.004 62.4811 202.001 65.0982 206.095 66.7878L210.799 68.6761C211.679 69.0406 213.676 69.8356 213.676 71.7571C213.676 73.0491 212.762 74.3412 210.766 74.3412C209.175 74.3412 207.618 73.4798 206.502 71.989C205.554 70.697 204.336 70.0013 202.982 70.0013C201.121 70.0013 199.124 71.4258 199.124 73.7448C199.124 74.9375 199.632 76.097 200.613 77.2565C203.422 80.6356 208.566 81 210.63 81C217.534 81 222.204 77.2565 222.204 71.6577C222.204 67.1522 220.275 64.8332 214.827 62.7792Z" fill="#CC3663"/>
<path d="M183.524 64.9654H180.275V56.0869H183.524C186.299 56.0869 188.295 57.9421 188.295 60.5262C188.295 63.1102 186.265 64.9654 183.524 64.9654ZM191.104 69.4047L192.255 68.6096C194.827 66.8206 196.214 63.9384 196.214 60.5262C196.214 54.4636 191.781 50.4219 185.182 50.4219H176.045C173.506 50.4219 171.814 52.1446 171.814 54.6624V76.7262C171.814 79.2771 173.506 80.9666 176.045 80.9666C178.583 80.9666 180.275 79.2439 180.275 76.7262V69.5703H181.222L188.769 78.9458C189.344 79.7077 190.596 80.9335 192.424 80.9335C194.793 80.9335 196.62 79.1114 196.62 76.8255C196.62 75.7654 196.146 74.6059 195.368 73.8108L191.104 69.4047Z" fill="#CC3663"/>
<path d="M35.0601 72.4194H32.3528V58.3728H35.0601C39.3918 58.3728 42.4038 61.255 42.4038 65.3961C42.4376 69.5372 39.3918 72.4194 35.0601 72.4194ZM34.7217 50.4219H28.7656C28.7317 50.4219 28.7317 50.4219 28.6979 50.4219C28.664 50.4219 28.664 50.4219 28.6302 50.4219H10.5587C9.61118 50.4219 8.83282 51.1838 8.83282 52.1115C8.83282 52.9065 9.40813 53.5691 10.1526 53.7348H23.757C24.7046 53.7348 25.4829 54.4967 25.4829 55.4243C25.4829 56.3519 24.7046 57.1139 23.757 57.1139H5.82091C5.00871 57.2464 4.36572 57.909 4.36572 58.7703C4.36572 59.5654 4.94103 60.2611 5.71939 60.4268H23.757C24.7046 60.4268 25.4829 61.1887 25.4829 62.1163C25.4829 63.044 24.7046 63.8059 23.757 63.8059H18.0716C17.2932 63.9716 16.7179 64.6341 16.7179 65.4624C16.7179 66.2906 17.3609 66.9863 18.1731 67.1188H23.757C24.7046 67.1188 25.4829 67.8808 25.4829 68.8084C25.4829 69.736 24.7046 70.4979 23.757 70.4979H5.68555C4.90719 70.6636 4.36572 71.3262 4.36572 72.1212C4.36572 72.9826 5.04256 73.7114 5.92244 73.7777H23.757C24.7046 73.7777 25.4829 74.5396 25.4829 75.4672C25.4829 76.3949 24.7046 77.1568 23.757 77.1568H17.1917C16.4472 77.3556 15.9057 77.985 15.9057 78.7801C15.9057 79.7077 16.6841 80.4697 17.6317 80.4697H28.8332H30.5253H34.7894C44.3327 80.4697 50.9657 74.3077 50.9657 65.4955C50.9318 56.5838 44.265 50.4219 34.7217 50.4219Z" fill="#CC3663"/>
<path d="M13.672 67.0525C14.4842 66.92 15.1272 66.2243 15.1272 65.3961C15.1272 64.601 14.5519 63.9053 13.7736 63.7397H1.82745C1.75977 63.7397 1.65824 63.7397 1.59056 63.7065C0.710675 63.7728 0 64.4685 0 65.363C0 66.2575 0.744516 66.9863 1.65824 67.0194C1.72592 67.0194 1.79361 66.9863 1.86129 66.9863H13.672V67.0525Z" fill="#CC3663"/>
<path d="M8.83203 78.6809C8.83203 79.6085 9.61039 80.3705 10.558 80.3705H12.7577C13.7052 80.3705 14.4836 79.6085 14.4836 78.6809C14.4836 77.8858 13.9421 77.2564 13.1976 77.0576H10.1519C9.40734 77.2233 8.83203 77.8858 8.83203 78.6809Z" fill="#CC3663"/>
</svg>
