<svg width="375" height="243" viewBox="0 0 375 243" fill="none" xmlns="http://www.w3.org/2000/svg">
<rect x="-30" y="159" width="405" height="84" fill="#F8F4F1"/>
<mask id="mask0_2150_40196" style="mask-type:alpha" maskUnits="userSpaceOnUse" x="0" y="-48" width="774" height="291">
<rect y="-48" width="774" height="291" fill="#D9D9D9"/>
</mask>
<g mask="url(#mask0_2150_40196)">
<g filter="url(#filter0_d_2150_40196)">
<g filter="url(#filter1_d_2150_40196)">
<rect width="191.784" height="120.089" rx="7.59576" transform="matrix(0.976556 0.215264 -0.21209 0.97725 17.7264 77.8972)" fill="white"/>
</g>
<mask id="mask1_2150_40196" style="mask-type:luminance" maskUnits="userSpaceOnUse" x="-7" y="79" width="211" height="157">
<rect width="191.784" height="120.089" rx="7.59576" transform="matrix(0.976556 0.215264 -0.21209 0.97725 17.7264 77.8972)" fill="white"/>
</mask>
<g mask="url(#mask1_2150_40196)">
<rect width="197.509" height="130.559" transform="matrix(0.976556 0.215264 -0.21209 0.97725 17.272 75.4819)" fill="white"/>
<path d="M79.3525 121.47C81.7225 122.295 83.305 120.561 85.579 116.862C86.0437 116.1 86.436 115.357 86.5691 114.98C87.4053 112.546 85.8977 110.546 84.0602 109.907C82.534 109.372 81.222 109.584 80.1686 110.536C79.3819 111.244 78.7308 112.431 78.069 114.377C77.383 116.395 77.0986 117.784 77.1938 118.764C77.3289 120.073 78.0967 121.029 79.3525 121.47Z" fill="#C63663"/>
<path d="M66.1532 171.174L61.2438 186.149C60.8222 187.421 59.5316 188.165 58.2336 187.879L34.3718 182.619C33.0739 182.333 32.2093 181.114 32.3533 179.78L37.8566 129.434C37.9176 128.877 38.2171 128.364 38.664 128.039C39.1208 127.708 39.6934 127.592 40.2322 127.711L75.5473 135.496C76.0942 135.616 76.5584 135.96 76.8363 136.454C77.106 136.945 77.1674 137.529 76.9921 138.061L75.1001 143.823C76.3542 144.627 77.2432 145.851 77.6135 147.298L81.6205 135.063L85.1552 135.842C86.6083 136.162 88.0416 135.234 88.3602 133.766C88.6788 132.297 87.7611 130.851 86.308 130.53L84.6834 130.172L84.7403 128.768C84.8837 127.555 84.2179 126.405 83.1279 125.949L42.2344 107.489C40.9475 106.955 39.4643 107.561 38.857 108.862L35.0058 117.148L47.7979 119.967C48.3449 120.088 48.6809 120.629 48.5627 121.173C48.4428 121.726 47.9071 122.066 47.3683 121.947L32.5027 118.67C31.0496 118.35 29.6163 119.278 29.2977 120.746C28.9791 122.214 29.8969 123.661 31.35 123.981L34.8847 124.761L28.9112 179.402C28.5709 182.507 30.6085 185.376 33.629 186.042L57.4826 191.3C60.5112 191.968 63.5513 190.218 64.5301 187.245L69.0037 173.608C67.9113 172.927 66.9608 172.104 66.1532 171.174Z" fill="#F06000"/>
<path d="M50.4977 160.342L47.7467 159.736L50.2884 148.024L53.0395 148.631C56.5416 149.403 58.468 152.351 57.7198 155.798C56.9716 159.246 53.9999 161.114 50.4977 160.342ZM54.2174 141.942L48.8295 140.754C46.5274 140.247 44.4969 141.562 43.9921 143.888L40.312 160.845C39.8072 163.171 41.1074 165.221 43.4095 165.728L48.7974 166.916C56.4955 168.613 62.9886 164.669 64.5852 157.312C66.1801 149.963 61.9155 143.639 54.2174 141.942Z" fill="#F06000"/>
<path d="M89.7527 152.93C90.1984 150.876 89.0774 149.065 87.0937 148.627C85.1018 148.188 83.3411 149.364 82.8954 151.418L80.3698 163.055C79.8829 165.299 77.8263 166.695 75.6875 166.223C73.5487 165.752 72.2564 163.626 72.7451 161.375L75.2707 149.737C75.7164 147.684 74.5955 145.872 72.6118 145.435C70.6199 144.996 68.8591 146.172 68.4134 148.226L65.8216 160.168C64.4719 166.387 67.9224 171.693 74.2082 173.079C80.4941 174.465 85.8275 171.094 87.1771 164.876L89.769 152.933L89.7527 152.93Z" fill="#F06000"/>
<path d="M131.686 178.973L127.296 171.023L134.131 165.78C135.125 165.022 135.747 164.166 135.933 163.308C136.388 161.213 135.152 159.221 133.119 158.773C132.091 158.546 131.004 158.903 129.809 159.875L121.858 166.834L123.272 160.318C123.732 158.199 122.662 156.468 120.613 156.016C118.564 155.564 116.875 156.687 116.415 158.807L112.301 177.76C111.841 179.879 112.911 181.61 114.96 182.062C117.009 182.514 118.698 181.391 119.158 179.271L120.585 172.698L125.349 182.632C126.052 184.006 126.765 184.664 127.809 184.894C129.842 185.342 131.662 184.093 132.131 181.932C132.352 180.952 132.183 179.878 131.686 178.973Z" fill="#F06000"/>
<path d="M144.831 165.071C145.291 162.951 144.221 161.22 142.172 160.768C140.123 160.317 138.434 161.44 137.974 163.559L133.861 182.512C133.401 184.632 134.471 186.363 136.52 186.814C138.569 187.266 140.258 186.143 140.718 184.024L144.831 165.071Z" fill="#F06000"/>
<path d="M177.246 172.423C177.884 170.55 176.735 169.027 175.327 168.535C174.158 168.13 173.148 168.288 172.348 169.019C171.743 169.56 171.246 170.47 170.734 171.964C170.202 173.507 169.996 174.576 170.064 175.326C170.17 176.334 170.763 177.07 171.726 177.403C173.539 178.036 174.76 176.706 176.497 173.866C176.853 173.288 177.147 172.721 177.246 172.423Z" fill="#C63663"/>
<path d="M97.0552 164.253L94.9538 173.936C94.4938 176.055 92.8045 177.178 90.7555 176.727C88.7064 176.275 87.6365 174.544 88.0965 172.424L92.2098 153.471C92.6698 151.352 94.3591 150.229 96.4081 150.681C97.3959 150.898 98.2215 151.469 98.634 152.131C99.0465 152.792 105.105 166.46 105.105 166.46L107.206 156.777C107.666 154.657 109.355 153.535 111.404 153.986C113.453 154.438 114.523 156.169 114.063 158.288L109.95 177.241C109.49 179.361 107.801 180.484 105.752 180.032C104.764 179.814 103.945 179.254 103.526 178.582C103.113 177.921 97.0552 164.253 97.0552 164.253Z" fill="#F06000"/>
<path d="M152.069 176.38L149.967 186.063C149.507 188.182 147.818 189.305 145.769 188.853C143.72 188.402 142.65 186.671 143.11 184.551L147.223 165.598C147.683 163.478 149.373 162.356 151.422 162.807C152.409 163.025 153.235 163.596 153.647 164.257C154.06 164.919 160.118 178.586 160.118 178.586L162.22 168.904C162.68 166.784 164.369 165.661 166.418 166.113C168.467 166.565 169.537 168.296 169.077 170.415L164.963 189.368C164.503 191.488 162.814 192.611 160.765 192.159C159.777 191.941 158.958 191.38 158.539 190.709C158.127 190.048 152.069 176.38 152.069 176.38Z" fill="#F06000"/>
<path d="M169.418 190.203L168.602 190.023C168.439 189.987 168.309 190.071 168.274 190.236L167.846 192.207C167.81 192.372 167.893 192.503 168.048 192.537C168.203 192.571 168.334 192.479 168.368 192.322L168.508 191.679L168.835 191.751L169.249 192.681C169.282 192.766 169.354 192.825 169.436 192.843C169.599 192.879 169.719 192.802 169.754 192.637C169.769 192.571 169.755 192.516 169.703 192.401L169.447 191.808L169.579 191.751C169.805 191.654 169.961 191.446 170.02 191.174C170.139 190.708 169.884 190.306 169.418 190.203ZM168.974 191.384L168.59 191.3L168.773 190.459L169.157 190.543C169.418 190.601 169.568 190.815 169.514 191.063C169.459 191.318 169.235 191.442 168.974 191.384Z" fill="#F06000"/>
<path d="M169.491 189.001C168.128 188.7 166.782 189.544 166.492 190.88C166.202 192.216 167.076 193.55 168.439 193.85C169.802 194.151 171.149 193.307 171.439 191.971C171.729 190.635 170.855 189.301 169.491 189.001ZM168.534 193.413C167.448 193.174 166.751 192.087 166.99 190.99C167.228 189.893 168.304 189.189 169.398 189.43C170.492 189.671 171.181 190.756 170.941 191.861C170.703 192.958 169.619 193.653 168.534 193.413Z" fill="#F06000"/>
</g>
</g>
<g filter="url(#filter2_d_2150_40196)">
<g filter="url(#filter3_d_2150_40196)">
<rect width="204.137" height="127.469" rx="8.60123" transform="matrix(0.971996 -0.234995 0.231562 0.97282 155.782 93.9712)" fill="white"/>
</g>
<mask id="mask2_2150_40196" style="mask-type:luminance" maskUnits="userSpaceOnUse" x="157" y="47" width="225" height="170">
<rect width="204.137" height="127.469" rx="8.60123" transform="matrix(0.971996 -0.234995 0.231562 0.97282 155.782 93.9712)" fill="white"/>
</mask>
<g mask="url(#mask2_2150_40196)">
<rect width="204.671" height="134.788" transform="matrix(0.971996 -0.234995 0.231562 0.97282 154.948 90.4681)" fill="white"/>
<path d="M253.943 103.436C254.287 103.273 254.605 103.401 254.671 103.678C254.72 103.886 254.657 104.114 254.35 104.268C252.659 105.116 252.791 106.439 253.601 108.55C253.9 109.32 254.131 109.483 254.466 109.439C255.1 109.359 255.121 108.475 254.741 107.688C253.705 105.596 254.837 104.699 255.572 104.558C256.235 104.435 256.644 104.702 256.726 105.048C256.792 105.325 256.761 105.516 257.157 105.566C257.59 105.608 257.76 105.677 257.859 106.092C258.016 106.75 257.86 108.032 258.753 108.073C259.178 108.08 259.601 107.758 259.893 107.211C260.054 106.916 260.646 106.334 260.938 105.787C261.25 105.162 260.927 105.095 261.555 104.503C262.368 103.721 262.48 102.412 263.721 101.49C264.668 100.785 265.647 100.219 265.762 99.5689C265.959 98.4594 265.218 97.2839 266.097 96.7788C266.536 96.5258 267.042 96.5503 267.575 97.3364C267.933 97.8724 269.201 98.5176 268.667 99.3423C268.302 99.9066 267.414 101.183 267.498 101.858C267.615 102.672 268.304 102.982 268.117 103.649C267.93 104.316 267.338 104.899 267.006 105.602C266.749 106.14 266.755 106.651 266.673 107.11C266.085 110.291 266.966 111.249 266.99 112.159C267.018 112.921 266.649 113.632 266.2 114.327C265.525 115.369 265.758 115.861 264.957 116.861C264.399 117.581 264.461 118.811 264.793 119.719C265.141 120.697 266.154 121.404 267.092 122.275C267.985 123.121 268.046 124.022 267.356 124.188C266.774 124.329 265.99 124.263 265.311 123.511C264.632 122.76 263.966 121.091 262.717 121.173C261.586 121.264 261.62 121.731 260.545 121.735C260.003 121.719 259.012 121.593 258.225 122.003C257.027 122.622 257.278 123.513 256.201 123.993C255.442 124.359 254.62 123.973 253.054 124.498C251.843 124.9 249.881 126.51 249.846 128.458C249.844 128.935 249.688 129.412 249.001 129.432C248.54 129.433 248.054 129.331 247.457 128.597C246.148 126.973 245.111 126.491 244.42 126.658C243.657 126.843 243.926 127.327 243.272 127.485C242.872 127.582 242.613 127.461 242.268 127.142C241.269 126.175 240.689 125.839 239.88 125.669C239.107 125.49 238.185 125.493 236.905 125.766C235.298 126.118 233.828 125.595 231.691 125.013C229.598 124.457 229.056 125.247 228.222 124.168C227.836 123.675 226.538 123.55 225.714 122.834C223.872 121.229 222.461 117.726 222.192 115.301C221.965 113.379 222.233 111.923 222.47 110.658C222.636 109.739 222.616 109.011 222.455 108.172C222.26 107.194 223.048 107.113 223.326 106.826C223.603 106.54 223.326 106.021 224.014 106.001C225.206 106.006 227.129 106.493 234.405 105.576C241.419 104.685 243.47 103.933 244.697 103.6C246.361 103.161 247.75 103.667 248.42 103.578C249.245 103.489 249.701 103.305 249.803 103.574C249.889 103.773 249.849 103.929 249.543 104.259C249.237 104.589 248.798 104.842 248.965 105.058C249.132 105.274 249.457 104.865 249.764 104.864C250.379 104.862 250.932 103.96 251.98 103.999C252.323 103.989 252.619 104.101 252.865 104.005C253.257 103.874 253.515 103.639 253.943 103.436Z" fill="#C63663"/>
<path fill-rule="evenodd" clip-rule="evenodd" d="M292.99 87.5122C291.498 87.8729 290.579 89.3841 290.937 90.8874C291.295 92.3909 292.794 93.3174 294.286 92.9567C295.778 92.596 296.697 91.0848 296.339 89.5813C295.981 88.078 294.482 87.1515 292.99 87.5122ZM287.733 96.1258C287.279 95.9316 286.754 95.911 286.276 96.1034C285.799 96.2955 285.438 96.6337 285.244 97.0904L283.238 101.828C283.004 102.379 282.533 102.755 281.996 102.885C281.632 102.973 281.237 102.948 280.866 102.788C279.949 102.393 279.522 101.323 279.914 100.398L282.067 95.4228C282.358 94.7344 282.729 94.1356 283.268 93.6186C283.78 93.1267 284.377 92.7414 285.041 92.4743C285.711 92.2046 286.414 92.0686 287.131 92.0704C287.878 92.0721 288.602 92.223 289.285 92.519L295.572 95.1941C295.912 95.3269 296.276 95.3306 296.597 95.204C296.815 95.118 297.109 94.9328 297.276 94.5375L299.584 89.0886C299.985 88.1425 301.071 87.7031 302.009 88.1069C302.948 88.5106 303.384 89.6049 302.983 90.5507L300.605 96.1912C300.35 96.7949 299.984 97.3597 299.529 97.8136C299.073 98.2701 298.542 98.6221 297.953 98.86C297.743 98.9443 297.529 99.0129 297.312 99.0654C296.327 99.3035 295.249 99.2315 294.278 98.8103L293.888 98.6427L291.41 104.482L297.52 107.107C297.946 107.291 298.303 107.594 298.554 107.983C298.785 108.342 298.914 108.759 298.927 109.188C298.94 109.618 298.836 110.042 298.627 110.414C298.4 110.818 298.061 111.142 297.647 111.351L288.151 116.15L286.234 120.725C285.989 121.309 285.491 121.707 284.923 121.844C284.542 121.936 284.129 121.911 283.74 121.745C282.772 121.333 282.318 120.208 282.727 119.232L285.989 111.45L284.623 105.713C284.282 104.281 284.505 103.751 285.194 102.115L285.263 101.949L287.733 96.1258ZM288.99 107.612L289.802 111.024L293.078 109.369L288.99 107.612Z" fill="#C63663"/>
<path d="M206.357 148.457L200.38 149.902C197.83 150.518 196.422 152.825 197.032 155.388L201.488 174.105C202.098 176.668 204.391 178.08 206.94 177.463L212.918 176.018C221.463 173.952 226.085 166.841 224.153 158.725C222.229 150.614 214.909 146.389 206.357 148.457ZM211.475 168.629L208.416 169.369L205.339 156.441L208.398 155.702C212.283 154.762 215.63 156.764 216.537 160.573C217.444 164.382 215.36 167.69 211.475 168.629Z" fill="#F06000"/>
<path d="M247.32 142.061C246.78 139.792 244.787 138.538 242.58 139.071C240.374 139.604 239.164 141.64 239.702 143.903L242.76 156.747C243.35 159.227 241.956 161.618 239.577 162.193C237.206 162.766 234.88 161.274 234.29 158.795L231.233 145.95C230.693 143.682 228.699 142.427 226.493 142.96C224.287 143.494 223.077 145.53 223.615 147.792L226.755 160.982C228.388 167.845 234.4 171.46 241.382 169.772C248.357 168.086 252.093 162.114 250.459 155.251L247.32 142.061Z" fill="#F06000"/>
<path d="M301.939 147.582L293.708 141.787L298.055 133.214C298.688 131.974 298.904 130.82 298.677 129.868C298.127 127.554 295.927 126.167 293.676 126.711C292.532 126.988 291.62 127.877 290.886 129.426L286.249 140.259L284.537 133.063C283.98 130.724 282.073 129.523 279.797 130.073C277.521 130.624 276.362 132.566 276.919 134.905L281.901 155.833C282.457 158.172 284.364 159.374 286.64 158.823C288.917 158.273 290.075 156.33 289.518 153.992L287.792 146.739L297.345 154.329C298.706 155.359 299.74 155.663 300.904 155.381C303.161 154.836 304.388 152.701 303.819 150.311C303.556 149.233 302.876 148.241 301.939 147.582Z" fill="#F06000"/>
<path d="M308.451 127.281C307.894 124.943 305.988 123.741 303.711 124.291C301.435 124.842 300.277 126.784 300.833 129.123L305.815 150.051C306.372 152.39 308.278 153.592 310.555 153.041C312.831 152.491 313.989 150.549 313.433 148.21L308.451 127.281Z" fill="#F06000"/>
<path d="M344.532 118.795C344.276 116.62 342.385 115.651 340.732 115.855C339.359 116.018 338.432 116.674 337.972 117.793C337.628 118.633 337.565 119.783 337.77 121.518C337.983 123.318 338.282 124.489 338.714 125.203C339.304 126.155 340.251 126.602 341.375 126.465C343.505 126.207 344.085 124.289 344.466 120.609C344.548 119.852 344.573 119.137 344.532 118.795Z" fill="#C63663"/>
<path d="M260.097 149.805L262.642 160.496C263.199 162.835 262.04 164.777 259.764 165.328C257.488 165.878 255.581 164.677 255.024 162.338L250.041 141.403C249.485 139.064 250.643 137.122 252.919 136.571C254.019 136.305 255.115 136.473 255.849 136.931C256.577 137.39 269.233 148.069 269.233 148.069L266.688 137.378C266.131 135.04 267.29 133.097 269.566 132.547C271.842 131.996 273.749 133.198 274.306 135.537L279.287 156.465C279.844 158.804 278.686 160.746 276.409 161.297C275.309 161.563 274.215 161.401 273.479 160.937C272.739 160.481 260.097 149.805 260.097 149.805Z" fill="#F06000"/>
<path d="M321.159 135.043L323.703 145.734C324.26 148.072 323.102 150.015 320.825 150.565C318.549 151.116 316.642 149.914 316.086 147.575L311.103 126.641C310.546 124.302 311.704 122.359 313.981 121.809C315.081 121.543 316.176 121.711 316.911 122.168C317.638 122.628 330.294 133.307 330.294 133.307L327.749 122.616C327.193 120.277 328.351 118.335 330.627 117.784C332.904 117.234 334.81 118.435 335.367 120.774L340.349 141.703C340.905 144.041 339.747 145.984 337.471 146.534C336.371 146.8 335.276 146.639 334.541 146.175C333.805 145.711 321.159 135.043 321.159 135.043Z" fill="#F06000"/>
<path d="M344.632 141.789L343.996 141.942C343.869 141.973 343.806 142.076 343.837 142.204L344.2 143.731C344.231 143.859 344.333 143.922 344.454 143.893C344.575 143.864 344.636 143.754 344.607 143.633L344.489 143.134L344.743 143.073L345.348 143.582C345.4 143.63 345.471 143.647 345.535 143.632C345.662 143.601 345.72 143.506 345.69 143.378C345.678 143.327 345.649 143.293 345.574 143.23L345.193 142.903L345.267 142.818C345.394 142.672 345.434 142.473 345.384 142.263C345.31 141.895 344.995 141.701 344.632 141.789ZM344.711 142.77L344.412 142.842L344.257 142.19L344.556 142.118C344.759 142.069 344.938 142.168 344.983 142.359C345.029 142.551 344.921 142.719 344.711 142.77Z" fill="#F06000"/>
<path d="M344.272 140.923C343.21 141.18 342.546 142.232 342.792 143.268C343.039 144.303 344.104 144.937 345.166 144.68C346.228 144.424 346.892 143.371 346.646 142.336C346.399 141.301 345.334 140.666 344.272 140.923ZM345.085 144.342C344.24 144.546 343.382 144.024 343.18 143.174C342.978 142.324 343.499 141.461 344.351 141.255C345.196 141.051 346.054 141.573 346.258 142.43C346.46 143.28 345.937 144.136 345.085 144.342Z" fill="#F06000"/>
</g>
</g>
</g>
<defs>
<filter id="filter0_d_2150_40196" x="-7.82604" y="79.3528" width="212.923" height="158.769" filterUnits="userSpaceOnUse" color-interpolation-filters="sRGB">
<feFlood flood-opacity="0" result="BackgroundImageFix"/>
<feColorMatrix in="SourceAlpha" type="matrix" values="0 0 0 0 0 0 0 0 0 0 0 0 0 0 0 0 0 0 127 0" result="hardAlpha"/>
<feOffset dy="1.51915"/>
<feGaussianBlur stdDeviation="0.759576"/>
<feColorMatrix type="matrix" values="0 0 0 0 0 0 0 0 0 0 0 0 0 0 0 0 0 0 0.160784 0"/>
<feBlend mode="normal" in2="BackgroundImageFix" result="effect1_dropShadow_2150_40196"/>
<feBlend mode="normal" in="SourceGraphic" in2="effect1_dropShadow_2150_40196" result="shape"/>
</filter>
<filter id="filter1_d_2150_40196" x="-10.1048" y="76.3145" width="217.48" height="163.326" filterUnits="userSpaceOnUse" color-interpolation-filters="sRGB">
<feFlood flood-opacity="0" result="BackgroundImageFix"/>
<feColorMatrix in="SourceAlpha" type="matrix" values="0 0 0 0 0 0 0 0 0 0 0 0 0 0 0 0 0 0 127 0" result="hardAlpha"/>
<feOffset dy="0.759576"/>
<feGaussianBlur stdDeviation="1.89894"/>
<feColorMatrix type="matrix" values="0 0 0 0 0 0 0 0 0 0 0 0 0 0 0 0 0 0 0.3 0"/>
<feBlend mode="normal" in2="BackgroundImageFix" result="effect1_dropShadow_2150_40196"/>
<feBlend mode="normal" in="SourceGraphic" in2="effect1_dropShadow_2150_40196" result="shape"/>
</filter>
<filter id="filter2_d_2150_40196" x="155.818" y="47.7786" width="227.866" height="171.859" filterUnits="userSpaceOnUse" color-interpolation-filters="sRGB">
<feFlood flood-opacity="0" result="BackgroundImageFix"/>
<feColorMatrix in="SourceAlpha" type="matrix" values="0 0 0 0 0 0 0 0 0 0 0 0 0 0 0 0 0 0 127 0" result="hardAlpha"/>
<feOffset dy="1.72025"/>
<feGaussianBlur stdDeviation="0.860123"/>
<feColorMatrix type="matrix" values="0 0 0 0 0 0 0 0 0 0 0 0 0 0 0 0 0 0 0.160784 0"/>
<feBlend mode="normal" in2="BackgroundImageFix" result="effect1_dropShadow_2150_40196"/>
<feBlend mode="normal" in="SourceGraphic" in2="effect1_dropShadow_2150_40196" result="shape"/>
</filter>
<filter id="filter3_d_2150_40196" x="153.237" y="44.3381" width="233.027" height="177.02" filterUnits="userSpaceOnUse" color-interpolation-filters="sRGB">
<feFlood flood-opacity="0" result="BackgroundImageFix"/>
<feColorMatrix in="SourceAlpha" type="matrix" values="0 0 0 0 0 0 0 0 0 0 0 0 0 0 0 0 0 0 127 0" result="hardAlpha"/>
<feOffset dy="0.860123"/>
<feGaussianBlur stdDeviation="2.15031"/>
<feColorMatrix type="matrix" values="0 0 0 0 0 0 0 0 0 0 0 0 0 0 0 0 0 0 0.3 0"/>
<feBlend mode="normal" in2="BackgroundImageFix" result="effect1_dropShadow_2150_40196"/>
<feBlend mode="normal" in="SourceGraphic" in2="effect1_dropShadow_2150_40196" result="shape"/>
</filter>
</defs>
</svg>
