<svg width="200" height="42" viewBox="0 0 200 42" fill="none" xmlns="http://www.w3.org/2000/svg">
<rect width="200" height="42" fill="white"/>
<g clip-path="url(#clip0_749_5265)">
<path d="M60.6516 12.6011C60.5677 12.5013 60.5141 12.3797 60.4972 12.2507V12.2507C60.2977 9.85605 59.9649 7.4743 59.5001 5.11637C59.4471 4.87973 59.3212 4.66547 59.1398 4.50352C58.9584 4.34156 58.7307 4.24002 58.4885 4.21307L55.0378 3.79935C55.0075 3.7975 54.9772 3.7975 54.947 3.79935C54.7543 3.79935 54.5695 3.87549 54.4333 4.01101C54.297 4.14653 54.2205 4.33034 54.2205 4.522V5.71255C54.22 5.72421 54.215 5.73524 54.2066 5.74332C54.1981 5.75141 54.1868 5.75592 54.1751 5.75591C54.17 5.75609 54.165 5.75521 54.1603 5.75335C54.1556 5.75148 54.1514 5.74866 54.1479 5.74507V5.74507C51.9911 3.80149 49.6631 2.0547 47.1919 0.525781V0.525781C46.6881 0.189833 46.0949 0.0111771 45.4883 0.012705V0.012705C44.8818 0.0111771 44.2886 0.189833 43.7847 0.525781V0.525781C31.9069 7.81183 25.3651 19.6758 25.1126 20.328C25.0391 20.4841 25.0006 20.6542 25 20.8266C24.9997 21.0874 25.0869 21.3408 25.2477 21.5466C25.4086 21.7525 25.634 21.899 25.8881 21.963L29.3152 22.6188C29.5415 22.6804 29.7441 22.8079 29.8969 22.985C30.0496 23.1621 30.1456 23.3806 30.1725 23.6124C30.1997 24.214 30.8463 37.6443 31.6599 41.1365C31.7268 41.3862 31.8746 41.6069 32.0806 41.7644C32.2865 41.9218 32.5389 42.0072 32.7987 42.0073H32.8259C34.8237 41.9585 36.6526 41.9242 38.6268 41.8989H38.6395H38.7921C38.8934 41.8984 38.9904 41.858 39.0619 41.7866C39.1333 41.7152 39.1735 41.6185 39.1735 41.5177V41.5087C39.0935 40.3362 38.921 37.6552 38.7812 34.8332C38.7812 34.7628 38.7812 34.6725 38.7685 34.602C38.7622 34.4844 38.7272 34.3701 38.6664 34.269C38.6057 34.1679 38.521 34.0832 38.4197 34.0221C37.8987 33.7121 37.4624 33.2793 37.1492 32.762C36.8359 32.2447 36.6554 31.6587 36.6235 31.0556C36.4419 26.3458 36.3529 20.9043 36.6126 16.6443C36.6165 16.4627 36.6927 16.2901 36.8245 16.1644C36.9563 16.0387 37.133 15.9702 37.3155 15.9741C37.4981 15.9779 37.6716 16.0537 37.798 16.1848C37.9243 16.316 37.9932 16.4916 37.9893 16.6732C37.9902 16.6907 37.9902 16.7082 37.9893 16.7256C37.8204 19.5656 37.8077 22.9223 37.8676 26.2338C37.8715 26.4494 37.9613 26.6547 38.1173 26.8044C38.2733 26.9542 38.4827 27.0362 38.6994 27.0323C38.9162 27.0285 39.1225 26.9392 39.2731 26.784C39.4236 26.6288 39.506 26.4205 39.5022 26.2049C39.4404 22.8717 39.4568 19.4933 39.6311 16.6443C39.6432 16.4687 39.7227 16.3044 39.8533 16.1856C39.9839 16.0668 40.1555 16.0026 40.3324 16.0063C40.5094 16.01 40.6781 16.0814 40.8035 16.2056C40.9289 16.3298 41.0014 16.4972 41.006 16.6732C41.0069 16.6907 41.0069 16.7082 41.006 16.7256C40.8371 19.5512 40.8244 22.8862 40.8825 26.1814C40.8859 26.397 40.9752 26.6025 41.1308 26.7526C41.2865 26.9027 41.4957 26.9851 41.7125 26.9817C41.9292 26.9784 42.1358 26.8895 42.2867 26.7347C42.4375 26.5798 42.5204 26.3717 42.517 26.1561C42.4571 22.8374 42.4735 19.4717 42.646 16.6425C42.6498 16.4609 42.7261 16.2883 42.8579 16.1626C42.9897 16.0369 43.1663 15.9684 43.3489 15.9723C43.5314 15.9761 43.705 16.0519 43.8313 16.183C43.9577 16.3142 44.0265 16.4898 44.0227 16.6714V16.7238C43.7757 20.8646 43.8556 26.1055 44.0227 30.7033C44.0217 30.7172 44.0217 30.7311 44.0227 30.7449V30.8154C44.0227 30.8316 44.0227 30.8461 44.0227 30.8605C44.0228 31.4572 43.8771 32.0449 43.598 32.573C43.319 33.1012 42.9149 33.5538 42.4208 33.892C42.3316 33.953 42.2577 34.0337 42.2048 34.1276C42.1519 34.2216 42.1214 34.3264 42.1157 34.434C42.1157 34.434 42.0303 35.1386 42.3445 38.5603C42.4898 40.0543 42.6024 41.0895 42.6533 41.5574C42.6648 41.6449 42.7081 41.7252 42.775 41.7831C42.8419 41.841 42.9278 41.8725 43.0165 41.8718H43.3361H45.383H45.6463C46.5399 41.8718 47.3917 41.8718 48.2126 41.8718L50.1541 41.888C50.2433 41.8887 50.3297 41.8566 50.3967 41.798C50.4637 41.7393 50.5066 41.6582 50.5173 41.5701C50.9659 37.4691 51.0731 35.1675 51.0731 35.1675C51.071 35.0691 51.033 34.9749 50.9661 34.9024C50.8993 34.8299 50.8082 34.7841 50.7098 34.7736L48.3488 34.4484C48.1921 34.4294 48.0445 34.3647 47.9246 34.2625C47.8047 34.1603 47.7179 34.0251 47.675 33.8739C47.6452 33.7559 47.6354 33.6338 47.6459 33.5126C48.6012 19.8474 53.1308 15.2424 53.1308 15.2424C53.1974 15.1747 53.2711 15.1141 53.3506 15.0617C53.4403 14.9974 53.5437 14.9543 53.6528 14.9358C53.7619 14.9172 53.8738 14.9237 53.9799 14.9547C54.0861 14.9857 54.1838 15.0405 54.2654 15.1148C54.3471 15.189 54.4106 15.2809 54.4512 15.3833C54.485 15.4893 54.5052 15.5992 54.5111 15.7103C54.9016 20.0064 54.7109 27.316 54.4693 33.0176C54.2641 37.8575 54.0153 41.655 54.0153 41.655V41.664C54.0153 41.7388 54.0451 41.8105 54.0983 41.8633C54.1514 41.9162 54.2235 41.9459 54.2986 41.9459V41.9459C55.5845 41.9657 56.8503 41.9928 58.1925 42.0254V42.0254C58.4522 42.0253 58.7047 41.9399 58.9106 41.7824C59.1165 41.625 59.2644 41.4042 59.3312 41.1546C60.1449 37.6714 60.7842 24.2411 60.8187 23.6305C60.8455 23.3987 60.9415 23.1801 61.0943 23.0031C61.2471 22.826 61.4496 22.6984 61.6759 22.6368L65.0994 21.981C65.3535 21.9171 65.5789 21.7705 65.7398 21.5647C65.9007 21.3588 65.9879 21.1054 65.9875 20.8447C65.9869 20.6723 65.9485 20.5021 65.8749 20.3461C65.7514 19.9938 63.9661 16.7076 60.6516 12.6011Z" fill="#F47920"/>
<path d="M72.5949 35.3608L72.584 35.3499L72.5949 35.3608Z" fill="#F47920"/>
<path d="M95.6749 27.8037L95.6876 27.7911C96.0556 27.5362 96.3931 27.2404 96.6938 26.9095L96.6811 26.9348C97.7767 25.673 98.3533 24.0465 98.2956 22.3803V22.3406C98.3246 20.6947 97.7234 19.0995 96.6139 17.8782L96.6811 17.9559C96.1362 17.3441 95.471 16.8499 94.7266 16.5038C93.9823 16.1576 93.1745 15.9669 92.3531 15.9434H86.3325C86.2361 15.9434 86.1437 15.9814 86.0756 16.0492C86.0075 16.1169 85.9692 16.2089 85.9692 16.3047V36.3996C85.9692 36.4954 86.0075 36.5873 86.0756 36.6551C86.1437 36.7228 86.2361 36.7609 86.3325 36.7609H89.9176C90.0124 36.7609 90.1034 36.7241 90.1713 36.6583C90.2392 36.5925 90.2785 36.5029 90.2808 36.4086V28.9636H91.6048L93.8678 36.5513C93.8914 36.6235 93.9373 36.6864 93.9989 36.7311C94.0606 36.7759 94.1348 36.8002 94.2111 36.8006H98.025C98.0814 36.8006 98.137 36.7876 98.1875 36.7625C98.2379 36.7374 98.2818 36.701 98.3156 36.6561C98.3415 36.6077 98.3551 36.5538 98.3551 36.4989C98.3551 36.4441 98.3415 36.3901 98.3156 36.3418L95.6749 27.8037ZM93.4519 24.1038H93.4646C93.2829 24.2977 93.0609 24.4498 92.814 24.5496C92.5672 24.6495 92.3014 24.6946 92.0353 24.6819H90.2754V20.1943H92.0226C92.2888 20.1827 92.5543 20.2285 92.8011 20.3286C93.0478 20.4287 93.2698 20.5807 93.4519 20.7742V20.7616C93.8247 21.2071 94.0188 21.774 93.9968 22.3532V22.3803C94.0403 23.0026 93.8457 23.6183 93.4519 24.1038V24.1038Z" fill="#F47920"/>
<path d="M111.423 35.3336L111.412 35.3446L111.423 35.3336Z" fill="#F47920"/>
<path d="M81.6593 17.3922C81.0707 16.8071 80.3674 16.3485 79.5933 16.0449C78.8191 15.7412 77.9905 15.5991 77.1588 15.6272H77.1334C76.3015 15.596 75.4721 15.7366 74.6975 16.0401C73.923 16.3435 73.22 16.8033 72.6329 17.3904L72.6728 17.338C71.5326 18.643 70.9466 20.3375 71.0383 22.0641V30.622C70.9185 32.3398 71.4724 34.037 72.5838 35.3571C73.1716 35.9417 73.8744 36.3993 74.6482 36.7011C75.422 37.003 76.2501 37.1426 77.0807 37.1113H77.1461C77.978 37.1417 78.8073 37.0006 79.5818 36.6968C80.3563 36.3931 81.0593 35.9333 81.6466 35.3463C82.7602 34.0258 83.3155 32.3271 83.1958 30.6076V25.9339C83.1916 25.8378 83.1508 25.7469 83.0816 25.6798C83.0124 25.6127 82.9201 25.5743 82.8235 25.5725H77.5311C77.433 25.5737 77.339 25.6115 77.2677 25.6784C77.1963 25.7453 77.1529 25.8365 77.1461 25.9339V29.4351C77.1489 29.5346 77.1908 29.6291 77.2628 29.6983C77.3347 29.7675 77.431 29.8059 77.5311 29.8054H78.9841V30.6076C79.015 31.2101 78.8374 31.805 78.481 32.2931L78.4955 32.2787C78.3411 32.4744 78.1409 32.6296 77.9123 32.7307C77.6837 32.8318 77.4338 32.8757 77.1842 32.8586H77.1588C76.9114 32.8808 76.6623 32.8419 76.4336 32.7455C76.2049 32.6491 76.0036 32.498 75.8475 32.3058C75.4768 31.8291 75.2894 31.2365 75.319 30.6347V22.1292C75.2931 21.5117 75.4903 20.9055 75.8748 20.4201C76.0289 20.2245 76.2288 20.0694 76.4571 19.9683C76.6853 19.8672 76.935 19.8232 77.1842 19.8402H77.2115C77.4586 19.818 77.7074 19.8568 77.9359 19.9533C78.1643 20.0497 78.3653 20.2008 78.5209 20.393L78.5482 20.4201C78.8826 20.9201 79.0363 21.5182 78.9841 22.1165V22.9078C78.9924 22.9968 79.0347 23.0791 79.1023 23.138C79.1698 23.1968 79.2576 23.2276 79.3473 23.224H82.9342C83.0242 23.2285 83.1124 23.198 83.1802 23.139C83.248 23.08 83.2901 22.9971 83.2975 22.9078V22.1039C83.3943 20.3809 82.8073 18.6891 81.6629 17.3922H81.6593Z" fill="#F47920"/>
<path d="M102.384 35.3464L102.373 35.3354L102.384 35.3464Z" fill="#F47920"/>
<path d="M143.083 15.9686H139.481C139.386 15.9685 139.295 16.0054 139.227 16.0712C139.159 16.137 139.12 16.2266 139.118 16.3208V24.1182H135.485V16.3245C135.485 16.2286 135.447 16.1367 135.379 16.069C135.311 16.0012 135.219 15.9631 135.122 15.9631H131.553C131.457 15.9631 131.365 16.0012 131.297 16.069C131.228 16.1367 131.19 16.2286 131.19 16.3245V36.3995C131.19 36.4953 131.228 36.5872 131.297 36.655C131.365 36.7227 131.457 36.7608 131.553 36.7608H135.14C135.235 36.7608 135.326 36.724 135.394 36.6582C135.462 36.5924 135.501 36.5028 135.504 36.4085V28.3312H139.136V36.3995C139.136 36.4953 139.174 36.5872 139.242 36.655C139.31 36.7227 139.403 36.7608 139.499 36.7608H143.081C143.175 36.7608 143.267 36.724 143.334 36.6582C143.402 36.5924 143.442 36.5028 143.444 36.4085V16.3245C143.443 16.2299 143.404 16.1396 143.336 16.0731C143.269 16.0065 143.178 15.969 143.083 15.9686V15.9686Z" fill="#F47920"/>
<path d="M112.959 30.6076V16.2794C112.952 16.1933 112.912 16.113 112.849 16.0545C112.785 15.9959 112.701 15.9634 112.614 15.9632H108.949C108.859 15.9596 108.772 15.9904 108.704 16.0492C108.637 16.108 108.594 16.1904 108.586 16.2794V30.6022C108.616 31.1862 108.438 31.7621 108.083 32.2281C107.792 32.5367 107.391 32.7202 106.966 32.7398C106.541 32.7594 106.126 32.6134 105.807 32.3329C105.76 32.3007 105.72 32.2603 105.687 32.2137C105.349 31.7536 105.181 31.1913 105.211 30.622V16.2794C105.211 16.2376 105.203 16.1963 105.186 16.1578C105.17 16.1194 105.146 16.0844 105.117 16.0551C105.087 16.0257 105.051 16.0025 105.012 15.9867C104.974 15.971 104.932 15.963 104.89 15.9632H101.192C101.149 15.9585 101.104 15.9625 101.062 15.975C101.02 15.9875 100.981 16.0083 100.947 16.0361C100.914 16.0638 100.886 16.0981 100.865 16.1368C100.845 16.1755 100.833 16.2178 100.829 16.2613V30.6022C100.708 32.3206 101.262 34.0187 102.375 35.3391C102.961 35.9241 103.663 36.3824 104.436 36.6852C105.209 36.988 106.036 37.1288 106.866 37.0987H106.919C107.748 37.1291 108.574 36.989 109.346 36.6871C110.119 36.3853 110.82 35.9282 111.406 35.3445C112.521 34.0248 113.077 32.3269 112.959 30.6076Z" fill="#F47920"/>
<path d="M174.274 30.3311V30.3582C174.274 29.5245 174.087 28.7012 173.725 27.9492C173.363 27.1972 172.836 26.5356 172.183 26.0133L172.21 26.0259L172.236 26.0006C172.776 25.4844 173.205 24.865 173.499 24.1795C173.792 23.494 173.943 22.7567 173.943 22.0117V22.0911C173.998 20.5184 173.449 18.9838 172.408 17.7986L172.434 17.8384C171.878 17.2223 171.196 16.7321 170.434 16.4008C169.672 16.0695 168.847 15.9048 168.015 15.918H162.27C162.176 15.9179 162.085 15.9548 162.017 16.0206C161.949 16.0864 161.91 16.176 161.907 16.2703V36.3995C161.907 36.4953 161.946 36.5872 162.014 36.655C162.082 36.7227 162.174 36.7608 162.27 36.7608H168.253C169.15 36.7774 170.039 36.5946 170.856 36.2258C171.673 35.857 172.397 35.3115 172.975 34.629L172.962 34.6416C173.897 33.4038 174.362 31.8769 174.274 30.3311V30.3311ZM166.188 20.1942H167.988C168.21 20.1793 168.433 20.2128 168.641 20.2924C168.849 20.372 169.037 20.4957 169.192 20.6549L169.219 20.682C169.531 21.1027 169.681 21.6205 169.642 22.1417C169.684 22.701 169.524 23.2568 169.192 23.7099V23.6972C169.045 23.8661 168.862 23.9991 168.655 24.0856C168.448 24.1721 168.224 24.2098 168.001 24.1958H166.184L166.188 20.1942ZM170.069 30.3582V30.3708C170.09 30.964 169.902 31.5458 169.539 32.0166L169.553 32.0437L169.566 32.0293C169.404 32.2215 169.198 32.3722 168.966 32.4684C168.733 32.5646 168.48 32.6036 168.229 32.5821H166.188V28.2463H168.238C168.49 28.2247 168.742 28.2637 168.975 28.36C169.207 28.4562 169.413 28.6068 169.575 28.7991L169.562 28.7846C169.916 29.2317 170.095 29.7902 170.069 30.3582V30.3582Z" fill="#F47920"/>
<path d="M158.724 30.6075V16.2793C158.717 16.1954 158.68 16.1166 158.619 16.0583C158.558 15.9999 158.478 15.9661 158.393 15.9632H154.701C154.657 15.9587 154.613 15.9629 154.571 15.9755C154.529 15.9881 154.49 16.0089 154.456 16.0366C154.423 16.0643 154.395 16.0985 154.374 16.1371C154.354 16.1756 154.341 16.2178 154.337 16.2613V30.6021C154.37 31.1761 154.202 31.7437 153.862 32.2082C153.572 32.5231 153.17 32.7121 152.741 32.7344C152.313 32.7567 151.892 32.6105 151.571 32.3274C151.525 32.2941 151.485 32.2539 151.452 32.2082C151.113 31.748 150.945 31.1858 150.976 30.6166V16.2793C150.968 16.1902 150.926 16.1075 150.858 16.0486C150.79 15.9897 150.702 15.9591 150.612 15.9632H146.946C146.856 15.9591 146.768 15.9897 146.7 16.0486C146.632 16.1075 146.59 16.1902 146.582 16.2793V30.6418C146.469 32.3476 147.024 34.0308 148.13 35.339L148.17 35.3788C149.417 36.4904 151.037 37.0987 152.712 37.0843C154.386 37.0699 155.995 36.434 157.223 35.3011L157.169 35.3408C158.282 34.0221 158.84 32.3258 158.724 30.6075Z" fill="#F47920"/>
<path d="M128.522 30.3312V30.3854C128.522 29.551 128.335 28.7272 127.973 27.9745C127.611 27.2217 127.085 26.559 126.432 26.0351L126.457 26.008C126.996 25.4936 127.425 24.8766 127.718 24.1937C128.011 23.5108 128.163 22.776 128.164 22.0334C128.181 20.512 127.635 19.0376 126.63 17.8909V17.9035C126.075 17.2872 125.393 16.7966 124.63 16.4649C123.868 16.1333 123.043 15.9684 122.211 15.9813H116.492C116.397 15.9813 116.306 16.0181 116.238 16.0839C116.17 16.1497 116.131 16.2393 116.129 16.3336V36.3996C116.129 36.4954 116.167 36.5873 116.235 36.655C116.303 36.7228 116.396 36.7609 116.492 36.7609H122.502C123.396 36.7746 124.283 36.59 125.097 36.2203C125.911 35.8506 126.632 35.3052 127.207 34.6237L127.195 34.6363C128.134 33.4021 128.604 31.8771 128.522 30.3312ZM120.409 20.1943H122.209C122.432 20.1794 122.655 20.2129 122.863 20.2924C123.071 20.372 123.26 20.4957 123.415 20.655L123.441 20.6821C123.753 21.1025 123.904 21.6204 123.866 22.1418C123.906 22.701 123.747 23.2565 123.415 23.71V23.6973C123.269 23.8662 123.085 23.9992 122.878 24.0857C122.672 24.1722 122.448 24.2099 122.224 24.1959H120.408L120.409 20.1943ZM124.287 30.3583V30.3709C124.308 30.9639 124.121 31.5458 123.758 32.0167L123.771 32.0438L123.784 32.0294C123.622 32.2216 123.416 32.3723 123.184 32.4685C122.951 32.5647 122.698 32.6037 122.447 32.5822H120.409V28.2463H122.462C122.713 28.225 122.965 28.264 123.198 28.3603C123.431 28.4565 123.637 28.607 123.798 28.7992L123.784 28.7847C124.137 29.2318 124.315 29.7906 124.287 30.3583Z" fill="#F47920"/>
<path d="M123.864 22.1556C123.863 22.1509 123.863 22.1462 123.864 22.1415C123.863 22.1374 123.863 22.1332 123.864 22.1292V22.1556Z" fill="#F47920"/>
<path d="M174.174 15.806C174.341 15.8013 174.507 15.8465 174.648 15.9358C174.79 16.0251 174.902 16.1545 174.969 16.3073C175.036 16.4601 175.056 16.6294 175.026 16.7936C174.996 16.9578 174.918 17.1093 174.801 17.2288C174.684 17.3484 174.534 17.4304 174.369 17.4645C174.205 17.4986 174.035 17.4832 173.879 17.4202C173.724 17.3572 173.591 17.2496 173.497 17.111C173.404 16.9725 173.354 16.8093 173.355 16.6425C173.353 16.534 173.373 16.4264 173.414 16.3257C173.454 16.2249 173.514 16.1331 173.59 16.0555C173.666 15.9778 173.757 15.9158 173.857 15.873C173.957 15.8302 174.065 15.8074 174.174 15.806ZM174.174 17.3253C174.311 17.3318 174.446 17.2974 174.563 17.2265C174.68 17.1556 174.773 17.0515 174.831 16.9275C174.888 16.8035 174.906 16.6654 174.884 16.5309C174.861 16.3965 174.798 16.2718 174.704 16.1729C174.61 16.0741 174.488 16.0056 174.354 15.9763C174.22 15.947 174.08 15.9582 173.953 16.0085C173.826 16.0588 173.716 16.1459 173.639 16.2586C173.562 16.3712 173.52 16.5043 173.52 16.6406C173.517 16.7285 173.531 16.8162 173.562 16.8984C173.594 16.9806 173.641 17.0558 173.702 17.1196C173.763 17.1834 173.836 17.2344 173.917 17.2697C173.998 17.3051 174.085 17.324 174.174 17.3253V17.3253ZM173.892 16.2071H174.228C174.264 16.2042 174.3 16.209 174.334 16.2211C174.368 16.2332 174.399 16.2524 174.425 16.2773C174.451 16.3023 174.471 16.3325 174.485 16.3658C174.498 16.3992 174.504 16.435 174.502 16.4708C174.505 16.5213 174.491 16.5712 174.462 16.6128C174.433 16.6543 174.391 16.6851 174.343 16.7003V16.7003C174.354 16.7148 174.365 16.7305 174.373 16.7472L174.539 17.067H174.357L174.195 16.731H174.065V17.067H173.899L173.892 16.2071ZM174.195 16.6172C174.215 16.6183 174.234 16.6153 174.252 16.6082C174.27 16.6012 174.286 16.5903 174.3 16.5764C174.313 16.5624 174.323 16.5458 174.329 16.5275C174.335 16.5093 174.337 16.4899 174.335 16.4708C174.337 16.4521 174.335 16.4331 174.329 16.4153C174.322 16.3975 174.312 16.3814 174.299 16.368C174.285 16.3547 174.269 16.3445 174.251 16.3382C174.233 16.332 174.214 16.3297 174.195 16.3317H174.065V16.6172H174.195Z" fill="#F47920"/>
</g>
<defs>
<clipPath id="clip0_749_5265">
<rect width="150" height="42" fill="white" transform="translate(25)"/>
</clipPath>
</defs>
</svg>
