<?xml version="1.0" encoding="UTF-8"?>
<svg width="200px" height="42px" viewBox="0 0 200 42" version="1.1" xmlns="http://www.w3.org/2000/svg" xmlns:xlink="http://www.w3.org/1999/xlink" style="background: #FFFFFF;">
    <title>Symbols / Icons / Logo / UberEatsMobile</title>
    <g id="Symbols-/-Icons-/-Logo-/-UberEatsMobile" stroke="none" stroke-width="1" fill="none" fill-rule="evenodd">
        <rect fill="#FFFFFF" x="0" y="0" width="200" height="42"></rect>
        <g id="Group" transform="translate(0.000000, 5.000000)" fill-rule="nonzero">
            <path d="M92.7421971,12.8368016 C89.7557951,12.8368016 87.6374817,15.1937224 87.6374817,18.8118222 L87.6374817,32.0835957 L83.0787097,32.0835957 L83.0787097,8.72306422 L87.5828793,8.72306422 L87.5828793,11.5756547 C88.7141178,9.65047736 90.7914814,8.49508185 93.0097158,8.55788381 L94.6476023,8.55788381 L94.6476023,12.8368016 L92.7421971,12.8368016 Z M79.9285166,20.4033621 C79.9285166,13.4370342 75.0148813,8.22745875 68.365093,8.22745875 C61.7830015,8.27259264 56.4833671,13.6914544 56.5281396,20.330666 L56.5286857,20.4033621 C56.5286857,27.3641325 61.8517906,32.6288002 68.7964028,32.6288002 C72.7327688,32.7041947 76.4600332,30.8428794 78.7874643,27.6394975 L75.4789493,25.194397 C73.9382453,27.3636185 71.4415781,28.6329249 68.7964028,28.592192 C64.9610339,28.5739778 61.7136664,25.7340762 61.1529661,21.9067543 L79.9394387,21.9067543 L79.9285166,20.4033621 Z M61.2512368,18.2610923 C62.0647149,14.698149 64.8873299,12.2860397 68.3104987,12.2860397 C71.7336635,12.2860397 74.5508214,14.698149 75.3151582,18.2610923 L61.2512368,18.2610923 Z M42.0880408,8.22745875 C39.0110136,8.2302214 36.0622888,9.47366815 33.8986487,11.6802818 L33.8986487,5.08038056e-13 L29.3398847,5.08038056e-13 L29.3398847,32.0835957 L33.8440504,32.0835957 L33.8440504,29.1208207 C36.0262499,31.3478651 38.9951846,32.609526 42.0989629,32.6288002 C48.779329,32.7719759 54.3099012,27.4258102 54.4518521,20.6874968 C54.593803,13.9491834 49.2930804,8.3706665 42.6132604,8.22745875 C42.4418279,8.22415001 42.2703954,8.22415001 42.0989629,8.22745875 L42.0880408,8.22745875 Z M41.7604667,28.5206834 C37.3310973,28.5420468 33.7233935,24.9372141 33.7020136,20.4699546 C33.6813575,16.0021491 37.2546628,12.3626227 41.6840322,12.341583 C46.1134057,12.3202515 49.7211095,15.9250842 49.7424071,20.3928576 C49.7424071,20.4148945 49.7424071,20.4368993 49.7424071,20.4584222 C49.7484067,24.8931724 46.1892941,28.4924798 41.793229,28.4986155 C41.7823069,28.4991294 41.7713888,28.4986155 41.7604667,28.4986155 L41.7604667,28.5206834 Z M12.5516169,28.3002833 C16.9520529,28.3002833 20.3697626,24.8969951 20.3697626,19.7976042 L20.3697626,5.08038056e-13 L25.0923137,5.08038056e-13 L25.0923137,32.0835957 L20.424359,32.0835957 L20.424359,29.0492489 C18.2203172,31.3467728 15.1804141,32.6342934 12.0111164,32.6125348 C5.22483575,32.6125348 0,27.6229858 0,20.0564254 L0,5.08038056e-13 L4.80990661,5.08038056e-13 L4.80990661,19.8251022 C4.80990661,24.9520874 8.08566545,28.3002833 12.5516169,28.3002833 Z" id="path2" fill="#262626"></path>
            <path d="M105.368947,0 L127.682324,0 L127.682324,5.44287431 L111.396338,5.44287431 L111.396338,13.1715634 L127.229178,13.1715634 L127.229178,18.4292924 L111.396338,18.4292924 L111.396338,26.2886288 L127.682324,26.2886288 L127.682324,31.7313907 L105.368947,31.7313907 L105.368947,0 Z M189.304807,32.3028725 C196.145692,32.3028725 200.000175,29.0372668 200.000175,24.5523714 C200.000175,21.3574701 197.71807,18.9735332 192.940913,17.9394049 L187.890783,16.9107377 C184.958976,16.3664647 184.036317,15.8222239 184.036317,14.7336458 C184.036317,13.3239585 185.450341,12.4585443 188.054567,12.4585443 C190.877186,12.4585443 192.968202,13.2150911 193.514161,15.8167628 L199.432387,15.8167628 C199.11025,10.9182739 195.577888,7.6852417 188.414899,7.6852417 C182.223717,7.6852417 177.877886,10.2324958 177.877886,15.1690513 C177.877886,18.5816554 180.269195,20.8023071 185.428497,21.8854242 L191.073719,23.1862761 C193.301261,23.6216816 193.896338,24.2203723 193.896338,25.1402042 C193.896338,26.6043412 192.214803,27.524141 189.495912,27.524141 C186.0782,27.524141 184.123662,26.7675942 183.36477,24.1659225 L177.41381,24.1659225 C178.28189,29.0535535 181.917979,32.3028725 189.304807,32.3028725 L189.304807,32.3028725 Z M175.694032,31.7096108 L169.289934,31.7096108 C165.271669,31.7096108 163.044142,29.2168386 163.044142,26.0708939 L163.044142,13.6070011 L158.539973,13.6070011 L158.539973,8.29485442 L163.065987,8.29485442 L163.065987,1.62740607 L169.016946,1.62740607 L169.016946,8.29485442 L175.694032,8.29485442 L175.694032,13.6070011 L169.016946,13.6070011 L169.016946,24.5523714 C169.016946,25.7987735 169.885011,26.3974963 171.244473,26.3974963 L175.694032,26.3974963 L175.694032,31.7096108 Z M150.033921,8.30574437 L150.033921,10.4174965 C147.938535,8.65187796 145.281338,7.68739399 142.537888,7.69609953 C135.722124,7.55350213 130.080179,12.9462152 129.936594,19.7409379 C129.793554,26.5356927 135.202908,32.1602751 142.018687,32.3028725 C142.191754,32.3066952 142.364821,32.3066952 142.537888,32.3028725 C145.281884,32.3148547 147.940174,31.3498889 150.033921,29.5815076 L150.033921,31.6987208 L155.968513,31.6987208 L155.968513,8.29485442 L150.033921,8.30574437 Z M143.029253,27.1649009 C139.064506,27.2100991 135.813854,24.0423745 135.768543,20.0898662 C135.723216,16.1373259 138.900707,12.8967125 142.86547,12.8515464 C146.830233,12.8063804 150.080869,15.9740408 150.126196,19.9265811 C150.126726,19.9554283 150.126726,19.9842754 150.126726,20.0130904 C150.162769,23.921043 147.014768,27.1180966 143.095316,27.154011 C143.069665,27.154011 143.043998,27.1545892 143.018347,27.154011 L143.029253,27.1649009 Z" id="path4" fill="#5FB709"></path>
        </g>
    </g>
</svg>